<svg width="108" height="108" viewBox="0 0 108 108" fill="none" xmlns="http://www.w3.org/2000/svg">
<circle cx="53.85" cy="53.85" r="53.85" fill="#009944"/>
<mask id="mask0_3_35" style="mask-type:alpha" maskUnits="userSpaceOnUse" x="0" y="0" width="108" height="108">
<circle cx="54.2" cy="54.2" r="53.5" fill="#AA1234"/>
</mask>
<g mask="url(#mask0_3_35)">
<path d="M27.0102 84.6594L72.5806 68.8218L96.0863 92.2287L65.3329 122.982L27.0102 84.6594Z" fill="#004422"/>
</g>
<path d="M64.7003 11.7C69.6603 19.1 65.25 22.85 60.3003 25.05C46.1 30.2 38.55 32.1 35.9501 35.35C33.1501 38.63 36.1 41.95 38.0503 42.95C41.6903 44.99 46.5336 47.3667 48.5003 48.3C50.8001 49.65 48.8001 50.9 48.0003 51.95C47.2501 53.25 49.0503 54.2667 50.2503 54.95C52.3863 56.1849 53.2785 57.0879 53.5541 57.5371C53.6358 57.6701 53.6897 57.8191 53.7512 57.9625C54.0861 58.7438 54.0614 59.564 54.0003 59.9C55.8003 57.58 53.5503 55.1 52.2003 54.15C50.6403 52.79 52.3503 51.0833 53.4003 50.4C55.1203 49.16 55.1001 48.35 54.7503 47.8C53.1501 45.85 50.1336 45.0333 49.1003 44.7C44.2203 43.18 43.467 41.1 43.7003 40.25C44.4603 38.21 47.817 37.5 49.4003 37.4C60.4403 35.92 64.45 34.85 70.6003 30.6C77.2 25.5 69.117 15.8167 64.7003 11.7Z" fill="white"/>
<rect x="81" y="85.2396" width="54.3" height="3.0081" rx="1.50405" transform="rotate(-180 81 85.2396)" fill="white"/>
<path d="M78.2233 81.306H29.4767C29.4767 72.2113 36.8494 64.8 45.9441 64.8H61.7559C70.8506 64.8 78.2233 72.2113 78.2233 81.306Z" fill="white"/>
<path d="M51.6 63.05C51.6 62.6358 51.9358 62.3 52.35 62.3H55.35C55.7642 62.3 56.1 62.6358 56.1 63.05C56.1 63.4642 55.7642 63.8 55.35 63.8H52.35C51.9358 63.8 51.6 63.4642 51.6 63.05Z" fill="white"/>
</svg>
