<svg width="421" height="113" viewBox="0 0 421 113" fill="none" xmlns="http://www.w3.org/2000/svg">
<g clip-path="url(#clip0_3_148)">
<circle cx="54.55" cy="53.85" r="53.85" fill="#009944"/>
<mask id="mask0_3_148" style="mask-type:alpha" maskUnits="userSpaceOnUse" x="1" y="0" width="108" height="108">
<circle cx="54.9" cy="54.2" r="53.5" fill="#AA1234"/>
</mask>
<g mask="url(#mask0_3_148)">
<path d="M27.7102 84.6594L73.2806 68.8218L96.7863 92.2287L66.0329 122.982L27.7102 84.6594Z" fill="#004422"/>
</g>
<path d="M65.4003 11.7C70.3603 19.1 65.95 22.85 61.0003 25.05C46.8 30.2 39.25 32.1 36.6501 35.35C33.8501 38.63 36.8 41.95 38.7503 42.95C42.3903 44.99 47.2336 47.3667 49.2003 48.3C51.5001 49.65 49.5001 50.9 48.7003 51.95C47.9501 53.25 49.7503 54.2667 50.9503 54.95C53.0863 56.1849 53.9784 57.0879 54.2541 57.5371C54.3358 57.6701 54.3897 57.8191 54.4512 57.9625C54.7861 58.7438 54.7614 59.564 54.7003 59.9C56.5003 57.58 54.2503 55.1 52.9003 54.15C51.3403 52.79 53.0503 51.0833 54.1003 50.4C55.8203 49.16 55.8001 48.35 55.4503 47.8C53.8501 45.85 50.8336 45.0333 49.8003 44.7C44.9203 43.18 44.167 41.1 44.4003 40.25C45.1603 38.21 48.517 37.5 50.1003 37.4C61.1403 35.92 65.15 34.85 71.3003 30.6C77.9 25.5 69.817 15.8167 65.4003 11.7Z" fill="white"/>
<rect x="81.7" y="85.2396" width="54.3" height="3.0081" rx="1.50405" transform="rotate(-180 81.7 85.2396)" fill="white"/>
<path d="M78.9233 81.306H30.1767C30.1767 72.2113 37.5494 64.8 46.6441 64.8H62.4559C71.5506 64.8 78.9233 72.2113 78.9233 81.306Z" fill="white"/>
<path d="M52.3 63.05C52.3 62.6358 52.6358 62.3 53.05 62.3H56.05C56.4642 62.3 56.8 62.6358 56.8 63.05C56.8 63.4642 56.4642 63.8 56.05 63.8H53.05C52.6358 63.8 52.3 63.4642 52.3 63.05Z" fill="white"/>
<path d="M165.975 73.025H145.125L141.675 83H130.65L149.475 30.575H161.7L180.525 83H169.425L165.975 73.025ZM163.125 64.625L155.55 42.725L147.975 64.625H163.125ZM213.812 83L202.262 62.6H197.312V83H186.812V30.65H206.462C210.512 30.65 213.962 31.375 216.812 32.825C219.662 34.225 221.787 36.15 223.187 38.6C224.637 41 225.362 43.7 225.362 46.7C225.362 50.15 224.362 53.275 222.362 56.075C220.362 58.825 217.387 60.725 213.437 61.775L225.962 83H213.812ZM197.312 54.725H206.087C208.937 54.725 211.062 54.05 212.462 52.7C213.862 51.3 214.562 49.375 214.562 46.925C214.562 44.525 213.862 42.675 212.462 41.375C211.062 40.025 208.937 39.35 206.087 39.35H197.312V54.725Z" fill="#009944"/>
<path d="M272.733 61.325C272.733 62.825 272.633 64.175 272.433 65.375H242.058C242.308 68.375 243.358 70.725 245.208 72.425C247.058 74.125 249.333 74.975 252.033 74.975C255.933 74.975 258.708 73.3 260.358 69.95H271.683C270.483 73.95 268.183 77.25 264.783 79.85C261.383 82.4 257.208 83.675 252.258 83.675C248.258 83.675 244.658 82.8 241.458 81.05C238.308 79.25 235.833 76.725 234.033 73.475C232.283 70.225 231.408 66.475 231.408 62.225C231.408 57.925 232.283 54.15 234.033 50.9C235.783 47.65 238.233 45.15 241.383 43.4C244.533 41.65 248.158 40.775 252.258 40.775C256.208 40.775 259.733 41.625 262.833 43.325C265.983 45.025 268.408 47.45 270.108 50.6C271.858 53.7 272.733 57.275 272.733 61.325ZM261.858 58.325C261.808 55.625 260.833 53.475 258.933 51.875C257.033 50.225 254.708 49.4 251.958 49.4C249.358 49.4 247.158 50.2 245.358 51.8C243.608 53.35 242.533 55.525 242.133 58.325H261.858ZM295.547 83.675C292.147 83.675 289.097 83.075 286.397 81.875C283.697 80.625 281.547 78.95 279.947 76.85C278.397 74.75 277.547 72.425 277.397 69.875H287.972C288.172 71.475 288.947 72.8 290.297 73.85C291.697 74.9 293.422 75.425 295.472 75.425C297.472 75.425 299.022 75.025 300.122 74.225C301.272 73.425 301.847 72.4 301.847 71.15C301.847 69.8 301.147 68.8 299.747 68.15C298.397 67.45 296.222 66.7 293.222 65.9C290.122 65.15 287.572 64.375 285.572 63.575C283.622 62.775 281.922 61.55 280.472 59.9C279.072 58.25 278.372 56.025 278.372 53.225C278.372 50.925 279.022 48.825 280.322 46.925C281.672 45.025 283.572 43.525 286.022 42.425C288.522 41.325 291.447 40.775 294.797 40.775C299.747 40.775 303.697 42.025 306.647 44.525C309.597 46.975 311.222 50.3 311.522 54.5H301.472C301.322 52.85 300.622 51.55 299.372 50.6C298.172 49.6 296.547 49.1 294.497 49.1C292.597 49.1 291.122 49.45 290.072 50.15C289.072 50.85 288.572 51.825 288.572 53.075C288.572 54.475 289.272 55.55 290.672 56.3C292.072 57 294.247 57.725 297.197 58.475C300.197 59.225 302.672 60 304.622 60.8C306.572 61.6 308.247 62.85 309.647 64.55C311.097 66.2 311.847 68.4 311.897 71.15C311.897 73.55 311.222 75.7 309.872 77.6C308.572 79.5 306.672 81 304.172 82.1C301.722 83.15 298.847 83.675 295.547 83.675ZM331.992 50.075V70.175C331.992 71.575 332.317 72.6 332.967 73.25C333.667 73.85 334.817 74.15 336.417 74.15H341.292V83H334.692C325.842 83 321.417 78.7 321.417 70.1V50.075H316.467V41.45H321.417V31.175H331.992V41.45H341.292V50.075H331.992ZM358.594 47.9C359.944 45.7 361.694 43.975 363.844 42.725C366.044 41.475 368.544 40.85 371.344 40.85V51.875H368.569C365.269 51.875 362.769 52.65 361.069 54.2C359.419 55.75 358.594 58.45 358.594 62.3V83H348.094V41.45H358.594V47.9ZM396.116 83.675C392.116 83.675 388.516 82.8 385.316 81.05C382.116 79.25 379.591 76.725 377.741 73.475C375.941 70.225 375.041 66.475 375.041 62.225C375.041 57.975 375.966 54.225 377.816 50.975C379.716 47.725 382.291 45.225 385.541 43.475C388.791 41.675 392.416 40.775 396.416 40.775C400.416 40.775 404.041 41.675 407.291 43.475C410.541 45.225 413.091 47.725 414.941 50.975C416.841 54.225 417.791 57.975 417.791 62.225C417.791 66.475 416.816 70.225 414.866 73.475C412.966 76.725 410.366 79.25 407.066 81.05C403.816 82.8 400.166 83.675 396.116 83.675ZM396.116 74.525C398.016 74.525 399.791 74.075 401.441 73.175C403.141 72.225 404.491 70.825 405.491 68.975C406.491 67.125 406.991 64.875 406.991 62.225C406.991 58.275 405.941 55.25 403.841 53.15C401.791 51 399.266 49.925 396.266 49.925C393.266 49.925 390.741 51 388.691 53.15C386.691 55.25 385.691 58.275 385.691 62.225C385.691 66.175 386.666 69.225 388.616 71.375C390.616 73.475 393.116 74.525 396.116 74.525Z" fill="#BBFFDD"/>
</g>
<defs>
<clipPath id="clip0_3_148">
<rect width="420" height="113" fill="white" transform="translate(0.699997)"/>
</clipPath>
</defs>
</svg>
