<svg width="421" height="114" viewBox="0 0 421 114" fill="none" xmlns="http://www.w3.org/2000/svg">
<g clip-path="url(#clip0_3_188)">
<circle cx="54.55" cy="54.35" r="53.85" fill="#009944"/>
<mask id="mask0_3_188" style="mask-type:alpha" maskUnits="userSpaceOnUse" x="1" y="1" width="108" height="108">
<circle cx="54.9" cy="54.7" r="53.5" fill="#AA1234"/>
</mask>
<g mask="url(#mask0_3_188)">
<path d="M27.7102 85.1594L73.2806 69.3218L96.7863 92.7287L66.0329 123.482L27.7102 85.1594Z" fill="#004422"/>
</g>
<path d="M65.4003 12.2C70.3603 19.6 65.95 23.35 61.0003 25.55C46.8 30.7 39.25 32.6 36.6501 35.85C33.8501 39.13 36.8 42.45 38.7503 43.45C42.3903 45.49 47.2336 47.8667 49.2003 48.8C51.5001 50.15 49.5001 51.4 48.7003 52.45C47.9501 53.75 49.7503 54.7667 50.9503 55.45C53.0863 56.6849 53.9784 57.5879 54.2541 58.0371C54.3358 58.1701 54.3897 58.3191 54.4512 58.4625C54.7861 59.2438 54.7614 60.064 54.7003 60.4C56.5003 58.08 54.2503 55.6 52.9003 54.65C51.3403 53.29 53.0503 51.5833 54.1003 50.9C55.8203 49.66 55.8001 48.85 55.4503 48.3C53.8501 46.35 50.8336 45.5333 49.8003 45.2C44.9203 43.68 44.167 41.6 44.4003 40.75C45.1603 38.71 48.517 38 50.1003 37.9C61.1403 36.42 65.15 35.35 71.3003 31.1C77.9 26 69.817 16.3167 65.4003 12.2Z" fill="white"/>
<rect x="81.7" y="85.7396" width="54.3" height="3.0081" rx="1.50405" transform="rotate(-180 81.7 85.7396)" fill="white"/>
<path d="M78.9233 81.806H30.1767C30.1767 72.7113 37.5494 65.3 46.6441 65.3H62.4559C71.5506 65.3 78.9233 72.7113 78.9233 81.806Z" fill="white"/>
<path d="M52.3 63.55C52.3 63.1358 52.6358 62.8 53.05 62.8H56.05C56.4642 62.8 56.8 63.1358 56.8 63.55C56.8 63.9642 56.4642 64.3 56.05 64.3H53.05C52.6358 64.3 52.3 63.9642 52.3 63.55Z" fill="white"/>
<path d="M165.975 73.525H145.125L141.675 83.5H130.65L149.475 31.075H161.7L180.525 83.5H169.425L165.975 73.525ZM163.125 65.125L155.55 43.225L147.975 65.125H163.125ZM213.812 83.5L202.262 63.1H197.312V83.5H186.812V31.15H206.462C210.512 31.15 213.962 31.875 216.812 33.325C219.662 34.725 221.787 36.65 223.187 39.1C224.637 41.5 225.362 44.2 225.362 47.2C225.362 50.65 224.362 53.775 222.362 56.575C220.362 59.325 217.387 61.225 213.437 62.275L225.962 83.5H213.812ZM197.312 55.225H206.087C208.937 55.225 211.062 54.55 212.462 53.2C213.862 51.8 214.562 49.875 214.562 47.425C214.562 45.025 213.862 43.175 212.462 41.875C211.062 40.525 208.937 39.85 206.087 39.85H197.312V55.225Z" fill="#009944"/>
<path d="M272.733 61.825C272.733 63.325 272.633 64.675 272.433 65.875H242.058C242.308 68.875 243.358 71.225 245.208 72.925C247.058 74.625 249.333 75.475 252.033 75.475C255.933 75.475 258.708 73.8 260.358 70.45H271.683C270.483 74.45 268.183 77.75 264.783 80.35C261.383 82.9 257.208 84.175 252.258 84.175C248.258 84.175 244.658 83.3 241.458 81.55C238.308 79.75 235.833 77.225 234.033 73.975C232.283 70.725 231.408 66.975 231.408 62.725C231.408 58.425 232.283 54.65 234.033 51.4C235.783 48.15 238.233 45.65 241.383 43.9C244.533 42.15 248.158 41.275 252.258 41.275C256.208 41.275 259.733 42.125 262.833 43.825C265.983 45.525 268.408 47.95 270.108 51.1C271.858 54.2 272.733 57.775 272.733 61.825ZM261.858 58.825C261.808 56.125 260.833 53.975 258.933 52.375C257.033 50.725 254.708 49.9 251.958 49.9C249.358 49.9 247.158 50.7 245.358 52.3C243.608 53.85 242.533 56.025 242.133 58.825H261.858ZM295.547 84.175C292.147 84.175 289.097 83.575 286.397 82.375C283.697 81.125 281.547 79.45 279.947 77.35C278.397 75.25 277.547 72.925 277.397 70.375H287.972C288.172 71.975 288.947 73.3 290.297 74.35C291.697 75.4 293.422 75.925 295.472 75.925C297.472 75.925 299.022 75.525 300.122 74.725C301.272 73.925 301.847 72.9 301.847 71.65C301.847 70.3 301.147 69.3 299.747 68.65C298.397 67.95 296.222 67.2 293.222 66.4C290.122 65.65 287.572 64.875 285.572 64.075C283.622 63.275 281.922 62.05 280.472 60.4C279.072 58.75 278.372 56.525 278.372 53.725C278.372 51.425 279.022 49.325 280.322 47.425C281.672 45.525 283.572 44.025 286.022 42.925C288.522 41.825 291.447 41.275 294.797 41.275C299.747 41.275 303.697 42.525 306.647 45.025C309.597 47.475 311.222 50.8 311.522 55H301.472C301.322 53.35 300.622 52.05 299.372 51.1C298.172 50.1 296.547 49.6 294.497 49.6C292.597 49.6 291.122 49.95 290.072 50.65C289.072 51.35 288.572 52.325 288.572 53.575C288.572 54.975 289.272 56.05 290.672 56.8C292.072 57.5 294.247 58.225 297.197 58.975C300.197 59.725 302.672 60.5 304.622 61.3C306.572 62.1 308.247 63.35 309.647 65.05C311.097 66.7 311.847 68.9 311.897 71.65C311.897 74.05 311.222 76.2 309.872 78.1C308.572 80 306.672 81.5 304.172 82.6C301.722 83.65 298.847 84.175 295.547 84.175ZM331.992 50.575V70.675C331.992 72.075 332.317 73.1 332.967 73.75C333.667 74.35 334.817 74.65 336.417 74.65H341.292V83.5H334.692C325.842 83.5 321.417 79.2 321.417 70.6V50.575H316.467V41.95H321.417V31.675H331.992V41.95H341.292V50.575H331.992ZM358.594 48.4C359.944 46.2 361.694 44.475 363.844 43.225C366.044 41.975 368.544 41.35 371.344 41.35V52.375H368.569C365.269 52.375 362.769 53.15 361.069 54.7C359.419 56.25 358.594 58.95 358.594 62.8V83.5H348.094V41.95H358.594V48.4ZM396.116 84.175C392.116 84.175 388.516 83.3 385.316 81.55C382.116 79.75 379.591 77.225 377.741 73.975C375.941 70.725 375.041 66.975 375.041 62.725C375.041 58.475 375.966 54.725 377.816 51.475C379.716 48.225 382.291 45.725 385.541 43.975C388.791 42.175 392.416 41.275 396.416 41.275C400.416 41.275 404.041 42.175 407.291 43.975C410.541 45.725 413.091 48.225 414.941 51.475C416.841 54.725 417.791 58.475 417.791 62.725C417.791 66.975 416.816 70.725 414.866 73.975C412.966 77.225 410.366 79.75 407.066 81.55C403.816 83.3 400.166 84.175 396.116 84.175ZM396.116 75.025C398.016 75.025 399.791 74.575 401.441 73.675C403.141 72.725 404.491 71.325 405.491 69.475C406.491 67.625 406.991 65.375 406.991 62.725C406.991 58.775 405.941 55.75 403.841 53.65C401.791 51.5 399.266 50.425 396.266 50.425C393.266 50.425 390.741 51.5 388.691 53.65C386.691 55.75 385.691 58.775 385.691 62.725C385.691 66.675 386.666 69.725 388.616 71.875C390.616 73.975 393.116 75.025 396.116 75.025Z" fill="#004422"/>
</g>
<defs>
<clipPath id="clip0_3_188">
<rect width="420" height="113" fill="white" transform="translate(0.699997 0.5)"/>
</clipPath>
</defs>
</svg>
