<svg width="108" height="108" viewBox="0 0 108 108" fill="none" xmlns="http://www.w3.org/2000/svg">
<path d="M64.8003 17.2C69.7603 24.6 65.35 28.35 60.4003 30.55C46.2 35.7 38.65 37.6 36.0501 40.85C33.2501 44.13 36.2 47.45 38.1503 48.45C41.7903 50.49 46.6336 52.8667 48.6003 53.8C50.9001 55.15 48.9001 56.4 48.1003 57.45C47.3501 58.75 49.1503 59.7667 50.3503 60.45C52.4863 61.6849 53.3784 62.5879 53.6541 63.0371C53.7358 63.1701 53.7897 63.3191 53.8512 63.4625C54.1861 64.2438 54.1614 65.064 54.1003 65.4C55.9003 63.08 53.6503 60.6 52.3003 59.65C50.7403 58.29 52.4503 56.5833 53.5003 55.9C55.2203 54.66 55.2001 53.85 54.8503 53.3C53.2501 51.35 50.2336 50.5333 49.2003 50.2C44.3203 48.68 43.567 46.6 43.8003 45.75C44.5603 43.71 47.917 43 49.5003 42.9C60.5403 41.42 64.55 40.35 70.7003 36.1C77.3 31 69.217 21.3167 64.8003 17.2Z" fill="#BBFFDD"/>
<rect x="81.1" y="90.7396" width="54.3" height="3.0081" rx="1.50405" transform="rotate(-180 81.1 90.7396)" fill="#BBFFDD"/>
<path d="M78.3233 86.806H29.5767C29.5767 77.7113 36.9494 70.3 46.0441 70.3H61.8559C70.9506 70.3 78.3233 77.7113 78.3233 86.806Z" fill="#BBFFDD"/>
<path d="M51.7 68.55C51.7 68.1358 52.0358 67.8 52.45 67.8H55.45C55.8642 67.8 56.2 68.1358 56.2 68.55C56.2 68.9642 55.8642 69.3 55.45 69.3H52.45C52.0358 69.3 51.7 68.9642 51.7 68.55Z" fill="#BBFFDD"/>
</svg>
